<svg viewBox="0 0 400 400" xmlns="http://www.w3.org/2000/svg">
  <!-- カラフルなボート形状のロゴを再現 -->
  <g>
    <!-- 上のボート部分 -->
    <path d="M50 150 Q200 100 350 150 Q320 180 280 170 Q200 160 50 180 Z" fill="#E55A4E"/>
    <path d="M60 160 Q200 110 340 160 Q310 180 270 175 Q200 165 60 185 Z" fill="#F4A261"/>
    <path d="M70 170 Q200 120 330 170 Q300 185 260 180 Q200 170 70 190 Z" fill="#2A9D8F"/>
    <path d="M80 180 Q200 130 320 180 Q290 190 250 185 Q200 175 80 195 Z" fill="#264653"/>

    <!-- 下のボート部分 -->
    <path d="M20 220 Q180 200 360 240 Q340 270 300 265 Q180 250 20 280 Z" fill="#E76F51"/>
    <path d="M30 230 Q180 210 350 250 Q330 275 290 270 Q180 255 30 285 Z" fill="#F4A261"/>
    <path d="M40 240 Q180 220 340 260 Q320 280 280 275 Q180 260 40 290 Z" fill="#E9C46A"/>
    <path d="M50 250 Q180 230 330 270 Q310 285 270 280 Q180 265 50 295 Z" fill="#2A9D8F"/>

    <!-- 水しぶきエフェクト -->
    <circle cx="320" cy="300" r="8" fill="#264653"/>
    <circle cx="335" cy="310" r="6" fill="#2A9D8F"/>
    <circle cx="350" cy="320" r="4" fill="#E9C46A"/>

    <circle cx="80" cy="320" r="6" fill="#E76F51"/>
    <circle cx="65" cy="330" r="4" fill="#F4A261"/>
    <circle cx="50" cy="340" r="3" fill="#E9C46A"/>
  </g>
</svg>